<!--<svg xmlns="http://www.w3.org/2000/svg" width="14" height="16" viewBox="0 0 512 512"><path fill="#626262" d="M459.08 486.15l-30-330.12c-1.07-11.63-10.82-20.54-22.5-20.54H338.8V82.8C338.8 37.16 301.66 0 256 0s-82.84 37.16-82.84 82.82v52.67H105.4c-11.7 0-21.44 8.9-22.5 20.53L52.78 487.38c-.57 6.32 1.54 12.6 5.82 17.27 4.28 4.7 10.33 7.36 16.68 7.36h361.44c12.48 0 22.6-10.1 22.6-22.6 0-1.1-.1-2.18-.24-3.25zm-247.36-236.8c-4.2 4.2-10.03 6.62-15.97 6.62s-11.77-2.4-15.97-6.63c-4.2-4.2-6.62-10.02-6.62-15.96s2.4-11.78 6.62-15.98c4.2-4.2 10.02-6.6 15.97-6.6 5.95 0 11.77 2.4 15.97 6.6 4.2 4.2 6.6 10.03 6.6 15.98s-2.4 11.76-6.6 15.96zm6.62-166.53c0-20.75 16.9-37.64 37.64-37.64 20.76 0 37.65 16.9 37.65 37.64v52.67h-75.3V82.8zM332.2 249.34c-4.2 4.2-10.04 6.62-15.98 6.62-5.95 0-11.77-2.4-15.97-6.62-4.2-4.2-6.62-10.02-6.62-15.96s2.4-11.78 6.62-15.98c4.2-4.2 10.02-6.6 15.97-6.6 5.94 0 11.77 2.4 15.97 6.6 4.2 4.2 6.6 10.03 6.6 15.98s-2.4 11.76-6.6 15.96z"/></svg>-->

<svg xmlns="http://www.w3.org/2000/svg" width="18px" height="18px" viewBox="0 0 64 64">
<polygon fill="none" stroke="#000000" stroke-width="2" stroke-miterlimit="10" points="44,18 54,18 54,63 10,63 10,18 20,18"/>
<path fill="none" stroke="#000000" stroke-width="2" stroke-miterlimit="10" d="M22,24V11c0-5.523,4.477-10,10-10s10,4.477,10,10v13 "/>
</svg>
