<svg xmlns="http://www.w3.org/2000/svg" width="38" height="38" viewBox="0 0 38 38"><g fill="#fff"><path d="M35.6 28.55a17.75 17.75 0 0 1-7.05 7.063 19.156 19.156 0 0 1-18.97 0 17.71 17.71 0 0 1-7.06-7.062 19.074 19.074 0 0 1 .03-19.037 17.6 17.6 0 0 1 7.14-7.047 19.06 19.06 0 0 1 18.75 0 17.493 17.493 0 0 1 7.12 7.047 19.173 19.173 0 0 1 .04 19.038zm-1.68-18.08A15.884 15.884 0 0 0 27.5 4.11a17.127 17.127 0 0 0-16.88 0A15.884 15.884 0 0 0 4.2 10.47a17.138 17.138 0 0 0-.05 17.133 16.21 16.21 0 0 0 6.38 6.36 17.166 17.166 0 0 0 17.08 0 16.136 16.136 0 0 0 6.35-6.36 17.17 17.17 0 0 0-.04-17.134z"/><path d="M9.32 10.675l1.58-1.582L28.76 26.95l-1.58 1.582z"/><path d="M28.76 10.675l-1.58-1.582L9.32 26.95l1.58 1.582z"/></g></svg>