<svg xmlns="http://www.w3.org/2000/svg" width="40" height="40" viewBox="0 0 511.999 511.999">
	<g>
		<path d="M441.699,91.838h-10.058V15.001h10.058c4.143,0,7.5-3.357,7.5-7.5s-3.357-7.5-7.5-7.5H116.219     C86.763,0,62.799,23.963,62.799,53.419c0,6.897,0,336.885,0,347.087v58.074c0,29.456,23.963,53.419,53.419,53.419h325.481     c4.143,0,7.5-3.357,7.5-7.5c0-7.055,0-145.107,0-152.611V174.301c0-4.143-3.357-7.5-7.5-7.5s-7.5,3.357-7.5,7.5v170.087h-317.98     c-21.184,0-38.418-17.234-38.418-38.418V90.479c9.722,10.075,23.345,16.359,38.418,16.359h317.98v39.956     c0,4.143,3.357,7.5,7.5,7.5s7.5-3.357,7.5-7.5V99.338C449.2,95.195,445.841,91.838,441.699,91.838z M116.219,359.389h317.98     v79.536h-67.082c-4.142,0-7.5,3.357-7.5,7.5s3.358,7.5,7.5,7.5h67.082v43.073h-317.98c-21.184,0-38.418-17.234-38.418-38.418     v-21.013c9.722,10.074,23.345,16.359,38.418,16.359H339.12c4.143,0,7.5-3.357,7.5-7.5s-3.357-7.5-7.5-7.5H116.219     c-21.184,0-38.418-17.234-38.418-38.418V343.05C87.522,353.119,101.151,359.389,116.219,359.389z M416.641,31.062H131.045     c-4.143,0-7.5,3.357-7.5,7.5s3.357,7.5,7.5,7.5h285.595v15.161H131.045c-4.143,0-7.5,3.357-7.5,7.5s3.357,7.5,7.5,7.5h285.595     v15.612H116.219C95.034,91.838,77.8,74.604,77.8,53.419c0-21.184,17.234-38.418,38.418-38.418h300.422V31.062z"/>
		<path d="M206.881,391.351h128.085c4.143,0,7.5-3.357,7.5-7.5s-3.357-7.5-7.5-7.5H206.881c-4.143,0-7.5,3.357-7.5,7.5     S202.739,391.351,206.881,391.351z"/>
		<path d="M206.881,421.513h128.085c4.143,0,7.5-3.357,7.5-7.5s-3.357-7.5-7.5-7.5H206.881c-4.143,0-7.5,3.357-7.5,7.5     S202.739,421.513,206.881,421.513z"/>
		<path d="M199.41,224.939c0,39.078,31.793,70.871,70.872,70.871s70.872-31.793,70.872-70.871     c0-39.079-31.793-70.873-70.872-70.873S199.41,185.859,199.41,224.939z M326.154,224.939c0,30.808-25.065,55.87-55.871,55.87     c-30.808,0-55.871-25.064-55.871-55.87c0-30.809,25.065-55.872,55.871-55.872C301.09,169.066,326.154,194.13,326.154,224.939z"/>
	</g>
</svg>