<svg xmlns="http://www.w3.org/2000/svg" viewBox="0 0 495.98666 300.88"
  height="126" width="210">
	<g transform="matrix(1.3333333,0,0,-1.3333333,0,300.88)">
		<g transform="scale(0.1)">
			<g>
				<path fill="#fcb117" id="top_orange" d="M 36.0703,2256.56 H 2108.71 c 0,0 8.96,-71.78 -67.3,-139.07 C 1965.14,2050.19 36.0703,305.059 36.0703,305.059 L 1399.88,1920.09 H 431.684 c 0,0 -158.848,-12.57 -209.539,-38.41 -45,-22.95 -90.286,-56.35 -100.84,-100.67 -22.4222,-94.2 -22.4222,-224.3 -22.4222,-224.3 H 36.0703 v 699.85"/>
				<path fill="#616267" id="bottom_grey" d="M 2072.97,0 H 0.328125 c 0,0 -8.976565,71.7695 67.292975,139.07 C 143.883,206.352 2072.97,1951.5 2072.97,1951.5 L 709.145,336.461 h 913.615 c 0,0 204.14,-11.223 303.93,62.008 28.85,21.179 53.67,46.101 61.04,77.062 22.43,94.207 22.43,224.309 22.43,224.309 h 62.81 V 0"/>
				<path fill="#8e8e8e" id="path_bottom_grey_blick" d="M 1428.37,1333.9 121.305,80.75 H 54.0195 c 0,0 0.0782,14.9414 38.9532,46.352 C 131.859,158.5 1428.37,1333.9 1428.37,1333.9"/>
				<path fill="#8e8e8e" id="bottom_grey_blick2" d="m 2029.53,517.422 c 0,0 17.95,-47.863 -17.94,-125.621 -14.97,-32.403 -46.94,-57.981 -78.3,-78.09 -66.02,-42.301 -193.88,-41.539 -193.88,-41.539 H 665.719 v 41.859 H 1678.83 c 0,0 99.44,4.278 159.28,15.699 199.64,38.129 191.42,187.692 191.42,187.692"/>
			</g>
			<path fill="#616267" id="letter_a" d="m 2271.13,149.898 c 47.01,-1.468 88.43,2.653 134.72,1.891 -21.93,52.07 -44.37,103.641 -68.32,153.699 -21.55,-52.449 -44.96,-103.027 -66.4,-155.59 z m 66.4,227.704 c 6.97,0 13.93,0 20.88,0 51.8,-104.672 94.78,-223.192 146.11,-326.3715 7.3,-14.6797 18.32,-27.1992 20.87,-43.64066 -22.21,1.17969 -49.22,-2.41796 -68.31,1.89063 0.88,46.17973 -23.8,82.17973 -41.74,115.74953 -47.44,4.43 -103.1,0.641 -153.7,1.899 -14.46,-38.3087 -41.16,-73.5899 -41.74,-119.53916 -17.08,0 -34.16,0 -51.23,0 59.74,119.87116 113.06,246.17216 168.86,370.01216"/>
			<path fill="#616267" id="letter_o" d="m 3402.03,231.48 c -8.12,-87.179 22.57,-163.6714 74,-191.6402 60.59,-32.94136 130.11,-9.5703 159.39,30.3594 36.08,49.1988 39.91,147.8208 5.7,212.5198 -20.6,38.941 -66.29,72.09 -127.14,66.422 -68.02,-6.352 -105.62,-49.653 -111.95,-117.661 z M 3553.83,0 c -9.49,0 -18.98,0 -28.46,0 -75.68,6.30078 -127.12,42.3516 -155.6,92.9805 -30.46,54.1605 -32.21,140.5705 1.9,197.3285 81.31,135.32 332.28,102.589 347.24,-79.7 C 3729.43,82.5313 3656.11,17.3789 3553.83,0"/>
			<path fill="#616267" id="letter_e" d="m 3274.9,337.75 c -33.64,8.891 -83.06,9.441 -123.33,5.68 0,-44.258 0,-88.532 0,-132.821 33.63,-1.918 76.86,2.782 111.95,5.7 -1.62,-13.571 -5.22,-25.137 -7.6,-37.95 -32.53,4.77 -67.5,7.141 -102.46,9.493 -4.4,-47.461 -0.65,-103.0903 -1.89,-153.7036 46.69,-3.6289 96.63,5.8008 136.62,15.1719 -0.97,-16.1094 -4.15,-30.0117 -7.6,-43.62889 -57.01,4.32809 -122,0.69922 -182.16,1.89843 8.92,102.01916 8.92,260.39816 0,362.42216 61.44,1.187 128.31,-3.09 184.06,3.789 8.58,-8.391 -7.46,-23.84 -7.59,-36.051"/>
			<path fill="#616267" id="letter_p" d="m 2715.14,195.441 c 34.23,45.219 20.69,141.641 -26.57,155.59 -17.03,5.028 -44.79,1.867 -64.51,-3.801 0,-59.449 0,-118.898 0,-178.371 39.76,-4.097 70.17,-1.039 91.08,26.582 z M 2625.95,148 c -4.33,-44.871 -1.35,-98.7305 5.71,-138.51953 -16.59,-4.28906 -41.02,-0.73047 -60.73,-1.89063 8.91,102.01916 8.91,260.39816 0,362.42216 41.08,-7.5 76.55,6.297 119.54,1.886 66.64,-6.816 99.43,-58.308 94.88,-117.628 -5.16,-67.239 -66.59,-120.391 -159.4,-106.27"/>
			<path fill="#616267" id="letter_l" d="m 2908.68,368.102 c -14.5,-99.34 -4.72,-222.973 -7.59,-333.9536 46.7,-3.6289 96.64,5.8008 136.62,15.1719 -0.96,-16.1094 -4.14,-30.0117 -7.59,-43.62889 -57.02,4.32809 -122,0.69922 -182.16,1.89843 8.92,102.01916 8.92,260.39816 0,362.42216 19.71,-1.172 44.13,2.386 60.72,-1.91"/>
		</g>
	</g>
</svg>