<svg xmlns="http://www.w3.org/2000/svg" width="18" height="19" viewBox="0 0 58.664001 60.765598"><g transform="matrix(1.33333 0 0 -1.33333 0 60.766)"><path fill="#7d7d7d" d="M18.4 40.8c7.5 0 13.6-6 13.6-13.6 0-7.5-6-13.6-13.6-13.6-7.5 0-13.6 6-13.6 13.6 0 7.5 6 13.6 13.6 13.6M43.4 4l-11 11.3c3 3.4 4.4 7.5 4.4 12 0 10-8.3 18.3-18.4 18.3C8.4 45.6 0 37.3 0 27.2 0 17 8.3 8.8 18.4 8.8c3.8 0 7.4 1 10.5 3.3L40 .8c.3-.4 1-.7 1.6-.7.6 0 1.2.2 1.7.7 1 1 1 2.4 0 3.4"/><clipPath><path d="M0 45.6h44V0H0z"/></clipPath></g></svg>