<svg xmlns="http://www.w3.org/2000/svg" width="29" height="26" viewBox="0 0 59.728535 54.395199">
	<g transform="matrix(1.33333 0 0 -1.33333 0 54.395)">
		<path fill="#ababab" d="M41.7 6.66l-7.65 3.82c-1.27.63-2.05 1.9-2.05 3.32v3.3l.2.23c.2.22.43.53.67.86.97 1.36 1.73 2.9 2.26 4.56l.13.4.4.12c.68.2 1.14.82 1.14 1.52V28c0 .45-.2.87-.54 1.18l-.26.24v5.08c0 .02.26 2.27-1.3 4.04-1.32 1.5-3.58 2.26-6.7 2.26-3.14 0-5.4-.77-6.73-2.28-1.3-1.47-1.32-3.24-1.3-3.82l.03-.02v-5.26l-.27-.24c-.34-.3-.53-.73-.53-1.18v-3.2c0-.54.28-1.04.74-1.34l.27-.18.08-.32.2-.77.03-.06.05-.14c.07-.24.15-.46.23-.68.05-.12.1-.23.13-.34.03-.03.04-.07.06-.1l.13-.33c0-.03.02-.06.04-.1l.3-.63c.2-.38.38-.73.56-1.03 0-.02 0-.03.02-.04l.25-.4v-.02l.44-.64h.02l.15-.2v-.02c.1-.1.14-.17.14-.17l.04-.03.16-.18v-3.22c0-1.36-.74-2.6-1.94-3.27l-7.14-3.88c-1.8-1-2.92-2.88-2.92-4.93V0h33.6v1.63c0 2.14-1.2 4.07-3.1 5.03"/>
		<path fill="#ababab" d="M13.36 8.13l4.5 2.45.15.32.38-.04 2.12 1.16c.67.37 1.1 1.08 1.1 1.86v2.64l-.06.08c-.03.04-.06.1-.1.13l-.5.74-.07.1c-.1.18-.2.36-.33.55l-.12.22c-.1.15-.17.3-.26.47l-.15.3c0 .03-.02.05-.03.08l-.23.5-.07.13-.04.1-.05.13c-.07.16-.14.32-.2.5l-.08.17-.15.45-.1.25c0 .04 0 .08-.02.12l-.07.2-.15.55v.04c-.38.3-.68.7-.88 1.12-.07.12-.1.26-.15.4l-.1.27c-.05.22-.07.46-.07.7V28c0 .77.3 1.52.8 2.1v3.78c-1.28.88-2.9 1.32-4.8 1.32-6.77 0-7.2-5.42-7.2-5.65v-4.3L6.14 25c-.35-.3-.54-.64-.54-.93V21.3c0-.42.22-.82.6-1.06l.26-.17.07-.32C7.16 17 9.28 15 9.3 14.98l.26-.23v-2.87c0-1.22-.66-2.34-1.73-2.92L2.5 5.62C.95 4.77 0 3.17 0 1.44V0h9.6v1.8c0 2.63 1.44 5.06 3.76 6.33"/>
		<clipPath>
			<path d="M0 40.8h44.8V0H0z"/>
		</clipPath>
	</g>
</svg>
