<?xml version="1.0" standalone="no"?>
<!DOCTYPE svg PUBLIC "-//W3C//DTD SVG 20010904//EN"
 "http://www.w3.org/TR/2001/REC-SVG-20010904/DTD/svg10.dtd">
<svg version="1.0" xmlns="http://www.w3.org/2000/svg"
 width="16.000000pt" height="16.000000pt" viewBox="0 0 16.000000 16.000000"
 preserveAspectRatio="xMidYMid meet">
<metadata>
Created by potrace 1.11, written by Peter Selinger 2001-2013
</metadata>
<g transform="translate(0.000000,16.000000) scale(0.005096,-0.005096)"
fill="#000000" stroke="none">
<path d="M144 2655 c0 -324 4 -485 11 -486 73 -8 75 -7 76 20 4 136 24 272 46
318 18 38 74 86 130 110 21 9 81 24 133 34 85 16 173 18 799 19 l703 0 -53
-62 c-30 -35 -58 -68 -64 -74 -5 -6 -26 -30 -45 -54 -19 -24 -49 -59 -66 -79
-17 -20 -86 -101 -154 -181 -67 -80 -132 -156 -143 -170 -12 -14 -55 -66 -96
-115 -41 -50 -80 -94 -86 -100 -6 -5 -20 -22 -31 -37 -12 -15 -41 -51 -67 -80
-25 -29 -100 -118 -167 -198 -67 -80 -134 -159 -149 -175 -14 -17 -48 -57 -76
-90 -27 -33 -52 -62 -55 -65 -3 -3 -52 -61 -110 -130 -57 -69 -109 -130 -115
-136 -5 -7 -26 -31 -44 -54 -19 -23 -40 -48 -45 -54 -6 -6 -45 -51 -86 -101
-41 -49 -79 -95 -85 -101 -5 -6 -28 -32 -50 -59 -22 -27 -47 -56 -55 -65 -8
-9 -22 -25 -30 -35 -14 -19 10 0 64 50 12 11 45 40 72 65 52 46 182 163 289
260 33 30 86 78 116 105 86 77 230 207 258 233 23 21 125 114 202 184 26 24
163 147 203 183 12 11 64 58 116 105 51 47 104 94 116 106 116 104 180 162
198 177 17 15 162 148 210 192 6 6 49 44 96 85 46 41 91 82 100 90 29 27 184
168 208 188 13 11 62 56 110 100 48 43 159 144 247 223 219 196 234 215 250
302 l7 37 -1444 0 -1444 0 0 -485z"/>
<path d="M2874 2622 c-39 -37 -91 -84 -115 -106 -24 -21 -69 -61 -99 -90 -30
-28 -75 -69 -100 -90 -25 -22 -88 -78 -140 -126 -52 -48 -144 -131 -205 -186
-60 -54 -115 -103 -121 -109 -23 -21 -177 -160 -194 -175 -10 -8 -59 -53 -110
-100 -51 -47 -102 -93 -114 -103 -20 -18 -133 -119 -187 -168 -213 -195 -216
-198 -284 -258 -28 -24 -72 -65 -100 -90 -27 -25 -95 -87 -150 -136 -55 -50
-102 -92 -105 -95 -3 -3 -52 -48 -110 -100 -58 -52 -110 -99 -116 -105 -6 -5
-44 -39 -84 -75 -40 -36 -88 -78 -105 -95 -18 -16 -91 -83 -163 -147 -132
-119 -165 -163 -175 -235 l-5 -33 1443 0 1444 0 0 485 c0 369 -3 485 -12 486
-7 0 -22 2 -34 3 -12 1 -26 0 -32 -3 -5 -3 -12 -49 -15 -101 -7 -114 -23 -205
-41 -241 -28 -54 -121 -116 -201 -133 -56 -12 -79 -17 -119 -23 -54 -8 -1435
-10 -1435 -2 0 6 233 286 319 384 14 17 46 55 71 85 25 30 48 57 51 60 3 3 30
34 60 70 29 36 58 70 64 76 5 6 28 33 50 60 22 27 54 64 71 84 17 19 169 199
338 400 169 201 324 385 344 409 20 23 42 48 47 55 6 6 100 117 209 246 109
129 209 247 222 263 44 49 10 28 -62 -41z"/>
</g>
</svg>
