<!--<svg xmlns="http://www.w3.org/2000/svg" width="44.19" height="38.25" viewBox="0 0 44.187 38.25"><path style="fill:#333;" d="M16.8 20.52a29.95 29.95 0 0 1-3.24 4.25c-2.9 3.08-6.7 3.9-10.8 3.7-3.68-.2-3.66 5.54 0 5.73 7.7.4 13.13-2.96 17.46-8.65-.7-.93-1.37-1.87-1.98-2.78-.5-.75-.97-1.5-1.44-2.25zm7.43-4.56l1.18 1.84a26.08 26.08 0 0 1 2.37-2.87 11.27 11.27 0 0 1 7.4-3.47l-.5.64a2.94 2.94 0 0 0 0 4.05 2.85 2.85 0 0 0 4.03 0c1.54-1.84 3-3.74 4.56-5.6a2.85 2.85 0 0 0 .14-4.05L38.27.9c-2.5-2.7-6.52 1.36-4.03 4.07l.67.72a16.38 16.38 0 0 0-7.98 2.54 21.4 21.4 0 0 0-4.8 4.5l.82 1.2 1.3 2.02zM38.7 22.1a2.46 2.46 0 0 0-1.92-.83 3.02 3.02 0 0 0-2.1.83 2.94 2.94 0 0 0 0 4.06l.5.63a11.27 11.27 0 0 1-7.4-3.48 29.77 29.77 0 0 1-3.3-4.2c-.94-1.43-1.84-2.9-2.8-4.35-.17-.28-.36-.54-.54-.8C16.88 7.8 11.57 4 3.97 4c-.4 0-.8 0-1.2.03-3.6.2-3.7 5.74-.2 5.74h.2q.58-.04 1.16-.04c3.64 0 7 .94 9.62 3.72a35.96 35.96 0 0 1 4.14 5.65c.6.94 1.17 1.88 1.8 2.8.52.8 1.06 1.58 1.64 2.35A23.2 23.2 0 0 0 26.92 30a16.38 16.38 0 0 0 7.98 2.56l-.66.72a3 3 0 0 0 2.13 4.96 2.54 2.54 0 0 0 1.9-.9l5.13-5.6a2.85 2.85 0 0 0-.15-4.05c-1.54-1.85-3-3.76-4.55-5.6z"/></svg>-->

<svg xmlns="http://www.w3.org/2000/svg" viewBox="0 0 471.475 471.475">
	<g>
		<path d="M180.25,329.875c-6-4.5-14.4-3.3-18.9,2.7c-22.5,29.8-56.8,46.9-94.1,46.9h-37.2c-7.5,0-13.5,6-13.5,13.5    s6,13.5,13.5,13.5h37.3c23.1,0,45.2-5.3,65.6-15.7c19.5-9.9,36.8-24.4,50-42C187.35,342.875,186.25,334.375,180.25,329.875z"/>
		<path d="M218.35,140.075c2.5,1.9,5.4,2.8,8.3,2.8c4,0,8-1.8,10.7-5.2c22.5-29,56.4-45.6,93-45.6h78.5l-41.9,41.9    c-5.3,5.3-5.3,13.8,0,19.1c2.6,2.6,6.1,4,9.5,4s6.9-1.3,9.5-4l65-65c5.3-5.3,5.3-13.8,0-19.1l-65-65c-5.3-5.3-13.8-5.3-19.1,0    c-5.3,5.3-5.3,13.8,0,19.1l41.9,41.9h-78.5c-45,0-86.7,20.4-114.4,56.1C211.45,127.075,212.45,135.475,218.35,140.075z"/>
		<path d="M386.05,318.475c-5.3-5.3-13.8-5.3-19.1,0c-5.3,5.3-5.3,13.8,0,19.1l41.9,41.9h-78.5c-64.9,0-117.7-52.8-117.7-117.7v-52    c0-79.8-64.9-144.7-144.7-144.7h-37.3c-7.5,0-13.5,6-13.5,13.5s6,13.5,13.5,13.5h37.3c64.9,0,117.7,52.8,117.7,117.7v52    c0,79.8,64.9,144.7,144.7,144.7h78.5l-41.9,41.9c-5.3,5.3-5.3,13.8,0,19.1c2.6,2.6,6.1,4,9.5,4s6.9-1.3,9.5-4l65-65 c5.3-5.3,5.3-13.8,0-19.1L386.05,318.475z"/>
	</g>
</svg>